# 
# Wavefront OBJ file
# Converted by the DEEP Exploration 
# Right Hemisphere, LTD
# http://www.righthemisphere.com/
# 
mtllib body.mtl
# object body
g body
v -8.41008e-006 -1.34838e-005 -61.5399
v -5.30422 -1.22368e-005 -60.0479
v -4.90047 2.51798 -60.0479
v -3.75066 4.65262 -60.0479
v -2.02984 6.07895 -60.0479
v -8.69828e-006 6.57981 -60.0479
v 2.02983 6.07895 -60.0479
v 3.75064 4.65262 -60.0479
v 4.90045 2.51798 -60.0478
v 5.30421 -1.29572e-005 -60.0478
v 4.90045 -2.518 -60.0478
v 3.75064 -4.65265 -60.0478
v 2.02983 -6.07897 -60.0478
v -9.80573e-006 -6.57983 -60.0479
v -2.02985 -6.07897 -60.0479
v -3.75066 -4.65265 -60.0479
v -4.90047 -2.518 -60.0479
v -9.34541 -6.9221e-006 -29.176
v -8.63403 4.0559 -29.176
v -6.6082 7.49432 -29.176
v -3.57633 9.79181 -29.176
v -3.67649e-006 10.5986 -29.176
v 3.57633 9.79181 -29.176
v 6.60819 7.49432 -29.176
v 8.63402 4.05589 -29.176
v 9.3454 -8.10436e-006 -29.176
v 8.63402 -4.05591 -29.176
v 6.60819 -7.49434 -29.176
v 3.57633 -9.79182 -29.176
v -5.60048e-006 -10.5986 -29.176
v -3.57634 -9.79182 -29.176
v -6.6082 -7.49434 -29.176
v -8.63403 -4.05591 -29.176
v -9.58253 -3.305e-006 -7.60399
v -8.8531 4.54896 -7.60399
v -6.77587 8.40539 -7.60399
v -3.66707 10.9822 -7.60399
v -6.2297e-007 11.887 -7.60399
v 3.66707 10.9822 -7.60399
v 6.77587 8.40539 -7.60399
v 8.8531 4.54896 -7.60399
v 9.58253 -4.60639e-006 -7.60399
v 8.8531 -4.54897 -7.60399
v 6.77587 -8.40539 -7.60399
v 3.66707 -10.9822 -7.60399
v -2.62368e-006 -11.887 -7.60399
v -3.66708 -10.9822 -7.60399
v -6.77587 -8.40539 -7.60399
v -8.8531 -4.54897 -7.60399
v -8.86506 0.0716168 13.968
v -8.19025 4.45828 13.968
v -6.26854 8.17711 13.968
v -3.39251 10.662 13.968
v 2.30708e-006 11.5345 13.968
v 3.39252 10.662 13.968
v 6.26855 8.17711 13.968
v 8.19025 4.45828 13.968
v 8.86506 0.0716156 13.968
v 8.19025 -4.31505 13.968
v 6.26855 -8.03388 13.968
v 3.39251 -10.5187 13.968
v 4.43426e-007 -11.3913 13.968
v -3.39251 -10.5187 13.968
v -6.26855 -8.03388 13.968
v -8.19025 -4.31504 13.968
v -7.08855 0.661133 35.5401
v -6.54897 4.71695 35.5401
v -5.01236 8.15531 35.5401
v -2.71267 10.4528 35.5401
v 5.11945e-006 11.2595 35.5401
v 2.71268 10.4528 35.5401
v 5.01237 8.15531 35.5401
v 6.54898 4.71695 35.5401
v 7.08856 0.661132 35.5401
v 6.54897 -3.39469 35.5401
v 5.01237 -6.83305 35.5401
v 2.71268 -9.13048 35.5401
v 3.59007e-006 -9.93724 35.5401
v -2.71267 -9.13048 35.5401
v -5.01236 -6.83305 35.5401
v -6.54897 -3.39469 35.5401
v -5.45304 1.74974 57.1121
v -5.03795 4.86978 57.1121
v -3.85588 7.51482 57.1121
v -2.08678 9.28219 57.1121
v 7.984e-006 9.9028 57.1121
v 2.0868 9.28219 57.1121
v 3.8559 7.51482 57.1121
v 5.03797 4.86978 57.1121
v 5.45306 1.74974 57.1121
v 5.03797 -1.37031 57.1121
v 3.85589 -4.01535 57.1121
v 2.0868 -5.78271 57.1121
v 6.80748e-006 -6.40333 57.1121
v -2.08678 -5.78271 57.1121
v -3.85588 -4.01535 57.1121
v -5.03795 -1.3703 57.1121
v 1.42055e-005 7.25355 102.093
v -1.09443 11.0426 -53.0612
v -7.06698e-006 11.5435 -53.0612
v 1.09441 11.0426 -53.0612
v -2.01593 11.7254 -35.1176
v -3.88124e-006 12.5322 -35.1176
v 2.01592 11.7254 -35.1176
# 104 verticies
vn 6.00519e-007 -3.51746e-007 -1
vn -0.25061 0.0837669 -0.964457
vn -0.270788 -7.38303e-007 -0.962639
vn -0.192619 0.155436 -0.968885
vn -0.104688 0.203953 -0.973367
vn 9.4017e-007 0.221149 -0.97524
vn 0.104689 0.203953 -0.973367
vn 0.19262 0.155436 -0.968884
vn 0.250612 0.0837666 -0.964457
vn 0.270789 -2.42372e-008 -0.962639
vn 0.250612 -0.0837673 -0.964457
vn 0.19262 -0.155437 -0.968884
vn 0.10469 -0.203954 -0.973367
vn 8.39437e-007 -0.221149 -0.97524
vn -0.104689 -0.203954 -0.973367
vn -0.19262 -0.155437 -0.968884
vn -0.250611 -0.0837677 -0.964457
vn -0.989967 0.0577927 -0.128936
vn -0.938606 0.336666 -0.0753338
vn -0.997487 0.000213968 -0.0708515
vn -0.915129 0.382283 -0.128056
vn -0.753145 0.652496 -0.0838003
vn -0.714909 0.687468 -0.127643
vn -0.581645 0.812397 -0.0412284
vn -0.588818 0.727106 -0.353001
vn -0.645673 0.745419 -0.165702
vn -0.035704 0.992708 0.115131
vn -0.480626 0.869647 0.112748
vn 0.0305822 0.943733 -0.329292
vn 0.658807 0.752187 -0.0136954
vn 0.540359 0.770341 -0.338507
vn 0.716519 0.665591 -0.208778
vn 0.753749 0.652387 -0.0790829
vn 0.533491 0.845529 0.0216332
vn 0.798592 0.587736 -0.129682
vn 0.938971 0.336328 -0.0722231
vn 0.954292 0.269372 -0.129482
vn 0.997487 -0.000214253 -0.0708518
vn 0.989967 -0.057793 -0.128936
vn 0.938606 -0.336666 -0.0753339
vn 0.915129 -0.382283 -0.128056
vn 0.753145 -0.652496 -0.0838003
vn 0.714909 -0.687468 -0.127643
vn 0.429124 -0.898556 -0.0919216
vn 0.371635 -0.919458 -0.128391
vn -0.000268767 -0.995568 -0.0940486
vn -0.0745651 -0.988769 -0.12952
vn -0.429735 -0.898628 -0.0882954
vn -0.499936 -0.856275 -0.129838
vn -0.753749 -0.652386 -0.0790825
vn -0.798592 -0.587736 -0.129681
vn -0.938972 -0.336328 -0.0722228
vn -0.954292 -0.269373 -0.129482
vn -0.947271 0.320357 0.00698392
vn -0.99994 -0.00350646 0.010363
vn -0.771642 0.63605 -0.00283361
vn -0.445107 0.895358 -0.0145931
vn 0.00503608 0.99977 -0.0208478
vn -0.0209268 0.992848 0.117542
vn 0.450281 0.89273 -0.0167135
vn 0.770752 0.637112 -0.00551375
vn 0.945425 0.325796 0.00532853
vn 0.999938 0.00350905 0.010533
vn 0.947264 -0.32035 0.00820682
vn 0.771648 -0.636049 -0.000583171
vn 0.445129 -0.895392 -0.0115245
vn -0.00503111 -0.999834 -0.0175335
vn -0.450297 -0.892771 -0.013875
vn -0.770757 -0.637119 -0.00359038
vn -0.945421 -0.325793 0.00620983
vn -0.952348 0.301274 0.0476105
vn -0.998404 -0.00448808 0.0563012
vn -0.790536 0.611477 0.0338998
vn -0.466073 0.884512 0.0203322
vn 0.00783955 0.999846 0.015686
vn 0.472661 0.880925 0.0237098
vn 0.788393 0.614003 0.0379124
vn 0.949784 0.308813 0.0504567
vn 0.998345 0.00453717 0.0573301
vn 0.951854 -0.301052 0.0578015
vn 0.789898 -0.610898 0.0535161
vn 0.465697 -0.883633 0.0481459
vn -0.00773692 -0.998902 0.0462118
vn -0.47214 -0.88013 0.0495453
vn -0.78774 -0.613531 0.0551756
vn -0.949373 -0.308659 0.0584872
vn -0.95889 0.275443 0.06828
vn -0.99697 -0.00332385 0.0777176
vn -0.81683 0.574054 0.0570179
vn -0.50059 0.864472 0.045815
vn 0.00616261 0.999229 0.0387781
vn 0.505723 0.861735 0.0407064
vn 0.815606 0.576325 0.0513392
vn 0.95741 0.281268 0.0652307
vn 0.996904 0.00343203 0.0785516
vn 0.957226 -0.274815 0.0905318
vn 0.814024 -0.571766 0.102224
vn 0.498296 -0.859599 0.113095
vn -0.00575877 -0.993283 0.115564
vn -0.503252 -0.857607 0.106055
vn -0.813077 -0.57444 0.0944628
vn -0.955952 -0.280734 0.0856961
vn -0.966686 0.244088 0.0770641
vn -0.995146 -0.026388 0.0948033
vn -0.842117 0.535219 0.0661788
vn -0.553276 0.830722 0.0615349
vn -0.059259 0.996373 0.0610712
vn 0.466541 0.882337 0.0618191
vn 0.800301 0.595984 0.0657409
vn 0.951009 0.299785 0.0755713
vn 0.995388 0.0266702 0.0921447
vn 0.963046 -0.242734 0.116712
vn 0.834754 -0.529552 0.150864
vn 0.545323 -0.816269 0.190599
vn 0.0586649 -0.97521 0.213361
vn -0.45878 -0.866685 0.195902
vn -0.792415 -0.589583 0.156429
vn -0.946839 -0.298176 0.120777
vn 8.17711e-007 0.0531437 0.998587
vn 0.120792 0.813554 -0.568805
# 120 normals
usemtl _2___Default
f  2//3 3//2 1//1
f  3//2 4//4 1//1
f  4//4 5//5 1//1
f  5//5 6//6 1//1
f  6//6 7//7 1//1
f  7//7 8//8 1//1
f  8//8 9//9 1//1
f  9//9 10//10 1//1
f  10//10 11//11 1//1
f  11//11 12//12 1//1
f  12//12 13//13 1//1
f  13//13 14//14 1//1
f  14//14 15//15 1//1
f  15//15 16//16 1//1
f  16//16 17//17 1//1
f  17//17 2//3 1//1
f  18//20 19//19 2//18
f  19//19 3//21 2//18
f  19//19 20//22 3//21
f  20//22 4//23 3//21
f  20//22 21//24 4//23
f  21//24 5//25 4//23
f  102//28 103//27 99//26
f  103//27 100//29 99//26
f  103//27 104//30 100//29
f  104//30 101//31 100//29
f  23//34 24//33 7//32
f  24//33 8//35 7//32
f  24//33 25//36 8//35
f  25//36 9//37 8//35
f  25//36 26//38 9//37
f  26//38 10//39 9//37
f  26//38 27//40 10//39
f  27//40 11//41 10//39
f  27//40 28//42 11//41
f  28//42 12//43 11//41
f  28//42 29//44 12//43
f  29//44 13//45 12//43
f  29//44 30//46 13//45
f  30//46 14//47 13//45
f  30//46 31//48 14//47
f  31//48 15//49 14//47
f  31//48 32//50 15//49
f  32//50 16//51 15//49
f  32//50 33//52 16//51
f  33//52 17//53 16//51
f  33//52 18//20 17//53
f  18//20 2//18 17//53
f  34//55 35//54 18//20
f  35//54 19//19 18//20
f  35//54 36//56 19//19
f  36//56 20//22 19//19
f  36//56 37//57 20//22
f  37//57 21//24 20//22
f  37//57 38//58 21//24
f  38//58 22//59 21//24
f  38//58 39//60 22//59
f  39//60 23//34 22//59
f  39//60 40//61 23//34
f  40//61 24//33 23//34
f  40//61 41//62 24//33
f  41//62 25//36 24//33
f  41//62 42//63 25//36
f  42//63 26//38 25//36
f  42//63 43//64 26//38
f  43//64 27//40 26//38
f  43//64 44//65 27//40
f  44//65 28//42 27//40
f  44//65 45//66 28//42
f  45//66 29//44 28//42
f  45//66 46//67 29//44
f  46//67 30//46 29//44
f  46//67 47//68 30//46
f  47//68 31//48 30//46
f  47//68 48//69 31//48
f  48//69 32//50 31//48
f  48//69 49//70 32//50
f  49//70 33//52 32//50
f  49//70 34//55 33//52
f  34//55 18//20 33//52
f  50//72 51//71 34//55
f  51//71 35//54 34//55
f  51//71 52//73 35//54
f  52//73 36//56 35//54
f  52//73 53//74 36//56
f  53//74 37//57 36//56
f  53//74 54//75 37//57
f  54//75 38//58 37//57
f  54//75 55//76 38//58
f  55//76 39//60 38//58
f  55//76 56//77 39//60
f  56//77 40//61 39//60
f  56//77 57//78 40//61
f  57//78 41//62 40//61
f  57//78 58//79 41//62
f  58//79 42//63 41//62
f  58//79 59//80 42//63
f  59//80 43//64 42//63
f  59//80 60//81 43//64
f  60//81 44//65 43//64
f  60//81 61//82 44//65
f  61//82 45//66 44//65
f  61//82 62//83 45//66
f  62//83 46//67 45//66
f  62//83 63//84 46//67
f  63//84 47//68 46//67
f  63//84 64//85 47//68
f  64//85 48//69 47//68
f  64//85 65//86 48//69
f  65//86 49//70 48//69
f  65//86 50//72 49//70
f  50//72 34//55 49//70
f  66//88 67//87 50//72
f  67//87 51//71 50//72
f  67//87 68//89 51//71
f  68//89 52//73 51//71
f  68//89 69//90 52//73
f  69//90 53//74 52//73
f  69//90 70//91 53//74
f  70//91 54//75 53//74
f  70//91 71//92 54//75
f  71//92 55//76 54//75
f  71//92 72//93 55//76
f  72//93 56//77 55//76
f  72//93 73//94 56//77
f  73//94 57//78 56//77
f  73//94 74//95 57//78
f  74//95 58//79 57//78
f  74//95 75//96 58//79
f  75//96 59//80 58//79
f  75//96 76//97 59//80
f  76//97 60//81 59//80
f  76//97 77//98 60//81
f  77//98 61//82 60//81
f  77//98 78//99 61//82
f  78//99 62//83 61//82
f  78//99 79//100 62//83
f  79//100 63//84 62//83
f  79//100 80//101 63//84
f  80//101 64//85 63//84
f  80//101 81//102 64//85
f  81//102 65//86 64//85
f  81//102 66//88 65//86
f  66//88 50//72 65//86
f  82//104 83//103 66//88
f  83//103 67//87 66//88
f  83//103 84//105 67//87
f  84//105 68//89 67//87
f  84//105 85//106 68//89
f  85//106 69//90 68//89
f  85//106 86//107 69//90
f  86//107 70//91 69//90
f  86//107 87//108 70//91
f  87//108 71//92 70//91
f  87//108 88//109 71//92
f  88//109 72//93 71//92
f  88//109 89//110 72//93
f  89//110 73//94 72//93
f  89//110 90//111 73//94
f  90//111 74//95 73//94
f  90//111 91//112 74//95
f  91//112 75//96 74//95
f  91//112 92//113 75//96
f  92//113 76//97 75//96
f  92//113 93//114 76//97
f  93//114 77//98 76//97
f  93//114 94//115 77//98
f  94//115 78//99 77//98
f  94//115 95//116 78//99
f  95//116 79//100 78//99
f  95//116 96//117 79//100
f  96//117 80//101 79//100
f  96//117 97//118 80//101
f  97//118 81//102 80//101
f  97//118 82//104 81//102
f  82//104 66//88 81//102
f  83//103 82//104 98//119
f  84//105 83//103 98//119
f  85//106 84//105 98//119
f  86//107 85//106 98//119
f  87//108 86//107 98//119
f  88//109 87//108 98//119
f  89//110 88//109 98//119
f  90//111 89//110 98//119
f  91//112 90//111 98//119
f  92//113 91//112 98//119
f  93//114 92//113 98//119
f  94//115 93//114 98//119
f  95//116 94//115 98//119
f  96//117 95//116 98//119
f  97//118 96//117 98//119
f  82//104 97//118 98//119
f  100//29 6//120 5//25
f  5//25 99//26 100//29
f  101//31 7//32 6//120
f  6//120 100//29 101//31
f  99//26 5//25 21//24
f  21//24 102//28 99//26
f  102//28 21//24 22//59
f  22//59 103//27 102//28
f  103//27 22//59 23//34
f  23//34 104//30 103//27
f  104//30 23//34 7//32
f  7//32 101//31 104//30
