# 
# Wavefront OBJ file
# Converted by the DEEP Exploration 
# Right Hemisphere, LTD
# http://www.righthemisphere.com/
# 
mtllib verticalflap.mtl
# object vert_flap
g vert_flap
v -0.0794087 15.3154 5.65434
v -0.997549 15.3154 3.63035
v -1.56499 15.3154 -0.147936
v 1.40617 15.3154 -0.147937
v 0.838731 15.3154 3.63035
v -0.0794087 32.1748 5.59206
v -0.75837 32.1748 4.38859
v -1.17799 32.1748 -0.102666
v 1.01917 32.1748 -0.102667
v 0.599551 32.1748 4.38858
# 10 verticies
vn -0.551432 -0.0014681 0.834219
vn -0.941135 0.00206587 0.338024
vn 0.546402 -0.00384089 0.837515
vn -0.975336 0.00895405 0.220544
vn -0.992546 0.016125 0.120801
vn -0.988664 0.0222957 0.148483
vn 0.992563 0.0149809 0.120809
vn 0.96858 0.00685486 0.248609
vn 0.995409 0.0225995 0.0930013
vn 0.934763 -0.000292407 0.355272
vn 1.11306e-012 1 3.16973e-006
vn -8.94766e-013 1 -2.54809e-006
vn -8.03572e-013 1 -2.54809e-006
vn -3.15362e-007 0.00268516 -0.999996
vn -3.1596e-007 0.00268516 -0.999996
vn 3.19007e-013 -1 1.00964e-006
vn -3.93268e-013 -1 1.00964e-006
vn -1.83533e-013 -1 4.71185e-007
# 18 normals
usemtl _2___Default
f  6//3 7//2 1//1
f  7//2 2//4 1//1
f  7//2 8//5 2//4
f  8//5 3//6 2//4
f  9//9 10//8 4//7
f  10//8 5//10 4//7
f  10//8 6//3 5//10
f  6//3 1//1 5//10
f  10//11 7//11 6//11
f  10//12 9//12 7//12
f  9//13 8//13 7//13
f  9//14 4//14 8//14
f  4//15 3//15 8//15
f  5//16 3//16 4//16
f  2//17 3//17 5//17
f  1//18 2//18 5//18
